<?xml version="1.0" standalone="no"?>
<!DOCTYPE svg PUBLIC "-//W3C//DTD SVG 20010904//EN"
 "http://www.w3.org/TR/2001/REC-SVG-20010904/DTD/svg10.dtd">
<svg version="1.0" xmlns="http://www.w3.org/2000/svg"
 width="700.000000pt" height="700.000000pt" viewBox="0 0 700.000000 700.000000"
 preserveAspectRatio="xMidYMid meet">
<metadata>
Created by potrace 1.11, written by Peter Selinger 2001-2013
</metadata>
<g transform="translate(0.000000,700.000000) scale(0.100000,-0.100000)"
fill="#000000" stroke="none">
<path d="M0 3500 l0 -3500 3500 0 3500 0 0 3500 0 3500 -3500 0 -3500 0 0
-3500z m3574 3150 c14 -5 43 -26 65 -46 47 -42 75 -116 65 -174 -10 -55 -51
-118 -94 -142 l-40 -23 0 -230 0 -230 213 213 c197 197 212 215 213 249 2 76
89 109 145 54 53 -54 27 -134 -49 -147 -32 -5 -72 -41 -279 -247 l-243 -242 0
-570 0 -570 349 349 c339 339 349 350 354 393 3 32 13 54 36 77 l31 32 0 168
0 168 -41 37 c-36 32 -42 43 -46 87 -9 91 47 154 136 154 139 0 193 -179 76
-256 l-25 -16 0 -173 0 -173 31 -31 31 -31 271 0 272 0 97 97 c54 54 98 103
98 109 0 19 39 47 67 47 30 0 63 -34 63 -64 0 -11 -10 -28 -22 -39 -13 -11
-67 -61 -121 -112 l-97 -92 87 -88 c48 -48 95 -88 105 -88 21 0 48 -37 48 -67
0 -27 -36 -63 -64 -63 -24 0 -66 37 -66 59 0 9 -42 57 -92 108 l-93 93 -278 0
-279 0 -35 -30 c-24 -22 -44 -30 -71 -30 -35 0 -54 -17 -429 -392 l-393 -393
0 -253 0 -252 45 -56 45 -55 0 -82 0 -82 225 225 c203 203 225 228 225 258 0
71 60 132 130 132 32 0 50 15 215 180 l180 180 372 0 c246 0 373 3 373 10 0
17 63 50 95 50 25 0 49 19 142 113 l112 112 -16 47 c-42 128 48 253 182 252
105 0 189 -84 189 -189 0 -130 -131 -224 -254 -181 l-45 15 -107 -106 c-63
-63 -104 -111 -101 -119 4 -11 60 -14 293 -14 182 0 291 4 295 10 9 15 48 12
73 -6 29 -20 30 -74 2 -99 -15 -13 -27 -16 -52 -10 -54 13 -590 17 -602 5 -7
-7 36 -57 146 -166 l155 -156 38 12 c113 37 225 -42 225 -160 0 -101 -103
-183 -202 -161 -98 23 -148 111 -123 220 7 33 5 36 -151 192 -145 145 -162
159 -194 159 -36 0 -100 32 -100 50 0 7 -119 10 -347 10 l-348 0 -166 -166
-167 -167 5 -41 c5 -38 22 -58 227 -264 l221 -223 442 2 c346 2 446 -1 458
-11 18 -15 20 -60 2 -84 -12 -17 -41 -18 -450 -17 l-437 2 0 -205 c0 -126 4
-207 10 -211 17 -11 11 -64 -10 -85 -27 -27 -56 -25 -85 5 -28 28 -31 53 -10
81 11 15 14 60 15 224 l0 204 -227 228 c-221 222 -229 228 -268 228 -39 0 -46
-6 -312 -272 l-273 -273 0 -120 0 -119 62 -63 62 -63 120 0 c66 0 134 5 151
11 45 16 81 5 93 -28 21 -62 -36 -110 -91 -79 -20 11 -54 16 -109 16 l-81 0
19 -21 c10 -12 36 -32 56 -45 45 -29 57 -64 34 -99 -12 -18 -25 -25 -48 -25
-32 0 -68 24 -68 44 0 6 -45 56 -100 111 l-100 100 0 -101 c0 -90 2 -103 21
-120 48 -43 49 -54 49 -386 l0 -312 37 -38 37 -38 476 0 476 0 74 -75 74 -75
571 0 c431 0 574 -3 583 -12 17 -17 15 -64 -4 -82 -13 -14 -53 -16 -277 -16
l-262 0 83 -83 c81 -81 95 -110 70 -135 -30 -30 -60 -13 -178 103 l-116 115
-258 0 -258 0 -77 75 -77 75 -474 0 -474 0 -33 32 -33 32 -55 -54 c-31 -30
-55 -63 -55 -75 0 -12 51 -71 137 -157 l137 -137 77 74 77 75 322 0 c202 0
328 -4 341 -10 25 -14 25 -56 0 -70 -12 -6 -136 -10 -333 -10 l-312 0 -58 -57
-58 -58 112 -112 113 -113 462 0 c406 0 463 -2 477 -16 9 -8 16 -21 16 -28 0
-32 -24 -36 -208 -36 l-185 0 52 -54 c53 -57 61 -76 37 -95 -20 -17 -38 -5
-121 78 l-69 71 -218 0 -218 0 0 -281 c0 -174 -4 -288 -10 -300 -12 -22 -59
-26 -78 -7 -9 9 -12 91 -12 308 l0 295 -240 240 -240 239 -2 -666 c-3 -639 -4
-667 -22 -687 -29 -32 -88 -29 -115 5 -21 26 -21 34 -21 688 l0 661 -240 -240
-240 -240 0 -288 c0 -180 -4 -296 -10 -308 -14 -26 -66 -26 -80 0 -6 12 -10
126 -10 300 l0 281 -218 0 -218 0 -69 -71 c-83 -83 -101 -95 -121 -78 -24 19
-16 38 37 95 l52 54 -185 0 c-130 0 -188 4 -196 12 -18 18 -14 46 7 58 13 6
181 10 478 10 l458 0 107 107 c60 59 108 112 108 118 0 5 -23 33 -52 62 l-52
53 -314 0 c-197 0 -321 4 -333 10 -25 14 -25 56 0 70 13 6 139 10 341 10 l322
0 77 -75 77 -74 137 137 c86 86 137 145 137 157 0 12 -24 45 -55 75 l-55 54
-33 -32 -33 -32 -474 0 -474 0 -77 -75 -77 -75 -258 0 -258 0 -116 -115 c-118
-116 -148 -133 -178 -103 -25 25 -11 54 70 135 l83 83 -258 0 c-159 0 -266 4
-278 10 -22 12 -27 68 -7 88 9 9 152 12 583 12 l571 0 74 75 74 75 475 0 475
0 38 37 38 37 0 314 c0 332 1 343 49 386 19 17 21 30 21 120 l0 101 -100 -100
c-55 -55 -100 -104 -100 -109 0 -20 -35 -46 -62 -46 -33 0 -68 31 -68 60 0 12
10 30 23 41 12 11 40 35 62 54 l40 34 -82 1 c-59 0 -90 -5 -111 -17 -56 -32
-111 18 -90 80 12 33 48 44 93 28 17 -6 85 -11 150 -11 l119 0 63 62 63 62 0
121 0 120 -272 272 c-267 267 -274 273 -313 273 -40 0 -46 -6 -268 -228 l-227
-228 0 -204 c1 -164 4 -209 15 -224 21 -28 18 -53 -10 -81 -29 -30 -58 -32
-85 -5 -21 21 -27 74 -10 85 6 4 10 85 10 211 l0 205 -437 -2 c-409 -1 -438 0
-450 17 -18 24 -16 69 2 84 12 10 115 12 458 11 l442 -2 222 223 c214 215 222
225 224 266 l3 42 -164 165 -165 165 -347 0 c-229 0 -348 -3 -348 -10 0 -18
-64 -50 -100 -50 -32 0 -49 -14 -197 -162 -127 -128 -160 -166 -153 -178 15
-24 12 -109 -7 -147 -53 -112 -229 -114 -292 -3 -76 135 55 289 204 240 l38
-12 155 156 c110 109 153 159 146 166 -12 12 -548 8 -602 -5 -25 -6 -37 -3
-52 10 -28 25 -27 79 2 99 25 18 64 21 73 6 4 -6 113 -10 295 -10 233 0 289 3
293 14 3 8 -38 56 -102 120 l-107 107 -43 -16 c-61 -21 -89 -19 -149 11 -143
71 -143 267 0 338 64 32 99 33 165 2 91 -43 132 -141 99 -236 l-15 -45 112
-112 c93 -94 117 -113 142 -113 32 0 95 -33 95 -50 0 -7 127 -10 373 -10 l372
0 180 -180 c165 -165 183 -180 215 -180 70 0 130 -61 130 -132 0 -30 22 -55
225 -258 l225 -225 0 81 c0 73 3 85 29 120 15 21 38 48 50 58 20 19 21 26 21
265 l0 246 -397 397 c-363 363 -401 398 -431 398 -39 0 -87 23 -95 45 -6 13
-44 15 -289 15 l-283 0 -92 -92 c-51 -51 -93 -99 -93 -107 0 -23 -41 -61 -67
-61 -31 0 -63 34 -63 67 0 30 25 63 49 63 9 0 56 39 104 88 l87 87 -87 86
c-49 47 -100 93 -115 102 -57 35 -40 117 24 117 31 0 68 -24 68 -44 0 -6 44
-55 97 -108 l98 -98 272 0 271 0 31 31 31 31 0 181 -1 182 -42 21 c-58 28 -97
86 -103 155 -5 46 -2 62 23 109 53 100 167 136 269 83 22 -11 52 -39 69 -62
26 -37 30 -51 30 -111 0 -60 -4 -74 -30 -111 -17 -24 -48 -52 -72 -63 l-42
-21 -1 -180 0 -179 31 -32 c23 -23 33 -45 36 -77 5 -43 15 -54 359 -398 l354
-354 0 570 0 570 -247 247 c-213 211 -253 247 -285 252 -76 13 -102 93 -49
147 56 55 143 22 145 -54 1 -34 17 -53 219 -254 l217 -218 0 230 0 230 -47 35
c-133 97 -121 285 22 351 44 20 119 25 159 9z"/>
<path d="M3442 6584 c-73 -37 -101 -140 -56 -202 78 -105 240 -63 251 65 9
107 -101 185 -195 137z"/>
<path d="M2900 6260 c0 -13 7 -20 20 -20 13 0 20 7 20 20 0 13 -7 20 -20 20
-13 0 -20 -7 -20 -20z"/>
<path d="M4060 6260 c0 -13 7 -20 20 -20 13 0 20 7 20 20 0 13 -7 20 -20 20
-13 0 -20 -7 -20 -20z"/>
<path d="M2519 6041 c-34 -34 -39 -44 -39 -85 0 -66 23 -104 76 -127 37 -17
50 -18 85 -9 51 14 84 46 97 94 25 88 -37 166 -131 166 -44 0 -54 -4 -88 -39z"/>
<path d="M4319 5941 c-64 -64 -16 -171 77 -171 35 0 94 59 94 94 0 93 -107
141 -171 77z"/>
<path d="M1690 5520 c0 -5 5 -10 10 -10 6 0 10 5 10 10 0 6 -4 10 -10 10 -5 0
-10 -4 -10 -10z"/>
<path d="M5290 5520 c0 -5 5 -10 10 -10 6 0 10 5 10 10 0 6 -4 10 -10 10 -5 0
-10 -4 -10 -10z"/>
<path d="M2593 5313 c-19 -7 -16 -53 3 -60 18 -7 45 6 51 24 4 11 -23 44 -35
42 -4 0 -13 -3 -19 -6z"/>
<path d="M4359 5304 c-17 -21 0 -49 32 -49 18 0 25 6 27 24 6 38 -34 55 -59
25z"/>
<path d="M1019 5061 c-34 -34 -39 -44 -39 -86 0 -42 5 -52 39 -86 33 -33 45
-39 81 -39 77 0 130 52 130 127 -1 73 -52 123 -129 123 -37 0 -49 -6 -82 -39z"/>
<path d="M5828 5084 c-35 -18 -58 -62 -58 -109 0 -73 54 -125 130 -125 36 0
48 6 81 39 34 34 39 44 39 86 0 42 -5 52 -39 86 -33 34 -45 39 -82 39 -24 -1
-56 -7 -71 -16z"/>
<path d="M1682 5041 c2 -7 7 -12 11 -12 12 1 9 15 -3 20 -7 2 -11 -2 -8 -8z"/>
<path d="M5296 5041 c-4 -5 -2 -12 3 -15 5 -4 12 -2 15 3 4 5 2 12 -3 15 -5 4
-12 2 -15 -3z"/>
<path d="M1497 4554 c-15 -16 -7 -53 14 -59 30 -10 58 19 43 43 -12 18 -45 28
-57 16z"/>
<path d="M5452 4548 c-26 -26 1 -65 38 -53 16 5 20 14 18 33 -3 30 -35 41 -56
20z"/>
<path d="M796 4531 c-4 -7 -5 -15 -2 -18 9 -9 19 4 14 18 -4 11 -6 11 -12 0z"/>
<path d="M6190 4526 c0 -9 5 -16 10 -16 6 0 10 4 10 9 0 6 -4 13 -10 16 -5 3
-10 -1 -10 -9z"/>
<path d="M2744 4105 c-4 -9 -2 -21 4 -27 15 -15 44 -1 40 19 -4 23 -36 29 -44
8z"/>
<path d="M4214 4105 c-4 -9 -2 -21 4 -27 15 -15 44 -1 40 19 -4 23 -36 29 -44
8z"/>
<path d="M975 4078 c-51 -29 -61 -93 -20 -133 56 -57 145 -21 145 57 0 69 -67
109 -125 76z"/>
<path d="M5925 4065 c-33 -32 -34 -93 -2 -122 56 -52 147 -15 147 59 -1 77
-92 117 -145 63z"/>
<path d="M3490 3270 c0 -491 0 -490 -49 -534 -20 -19 -21 -27 -21 -331 l0
-311 41 -39 40 -40 40 42 39 42 0 309 c0 301 -1 309 -21 328 -49 44 -49 43
-49 534 0 300 -3 460 -10 460 -7 0 -10 -160 -10 -460z"/>
<path d="M1330 3560 c0 -5 7 -10 16 -10 8 0 12 5 9 10 -3 6 -10 10 -16 10 -5
0 -9 -4 -9 -10z"/>
<path d="M5645 3560 c-3 -5 1 -10 9 -10 9 0 16 5 16 10 0 6 -4 10 -9 10 -6 0
-13 -4 -16 -10z"/>
<path d="M2210 3050 c0 -5 5 -10 10 -10 6 0 10 5 10 10 0 6 -4 10 -10 10 -5 0
-10 -4 -10 -10z"/>
<path d="M4770 3050 c0 -5 5 -10 10 -10 6 0 10 5 10 10 0 6 -4 10 -10 10 -5 0
-10 -4 -10 -10z"/>
<path d="M2900 3020 c0 -5 5 -10 10 -10 6 0 10 5 10 10 0 6 -4 10 -10 10 -5 0
-10 -4 -10 -10z"/>
<path d="M4080 3020 c0 -5 5 -10 10 -10 6 0 10 5 10 10 0 6 -4 10 -10 10 -5 0
-10 -4 -10 -10z"/>
<path d="M3070 2850 c0 -5 5 -10 10 -10 6 0 10 5 10 10 0 6 -4 10 -10 10 -5 0
-10 -4 -10 -10z"/>
<path d="M3910 2850 c0 -5 5 -10 10 -10 6 0 10 5 10 10 0 6 -4 10 -10 10 -5 0
-10 -4 -10 -10z"/>
</g>
</svg>
